<svg xmlns="http://www.w3.org/2000/svg" width="128" height="29" viewBox="0 0 128 29" fill="none">
<g clip-path="url(#clip0_424_4992)">
<path d="M15.3443 13.655C15.9451 13.7643 16.5397 13.5769 17.097 13.7706C17.1188 13.8143 17.1406 13.8549 17.1623 13.8986C17.0534 13.9767 16.9351 14.0423 16.8386 14.1361C15.4813 15.4294 14.1302 16.7259 12.776 18.0192C12.7449 18.0504 12.7169 18.091 12.6795 18.1035C12.5706 18.1316 12.4616 18.1473 12.3527 18.166C12.3495 18.0598 12.3091 17.938 12.3433 17.8474C12.6453 17.0601 12.9597 16.2822 13.271 15.4981C13.299 15.42 13.3239 15.3419 13.3613 15.2232C13.2181 15.2138 13.106 15.2045 12.9908 15.2013C12.6453 15.2013 12.2966 15.2076 11.9511 15.1982C11.6989 15.1888 11.6522 15.1107 11.7425 14.8733C12.141 13.8705 12.5426 12.8677 12.9379 11.8618C13.0126 11.6712 13.1309 11.5775 13.3364 11.5775C14.2828 11.5806 15.2291 11.5775 16.1755 11.5806C16.4993 11.5806 16.5397 11.6806 16.3654 11.9618C16.0665 12.446 15.7677 12.9302 15.4688 13.4144C15.4253 13.4831 15.391 13.5581 15.3412 13.6518L15.3443 13.655Z" fill="#707A9F"/>
<path d="M23.5753 23.8361C23.5753 24.0454 23.4383 24.3203 23.1643 24.6608C20.7642 27.5286 17.5764 28.9594 13.5979 28.9594C9.61938 28.9594 6.22925 27.5661 3.69832 24.7764C1.23277 22.0804 0 18.6784 0 14.5672C0 10.456 1.20787 7.21332 3.6205 4.43609C6.13586 1.53078 9.3392 0.078125 13.2274 0.078125C17.455 0.078125 20.7673 1.38083 23.1674 3.98624C23.4289 4.27364 23.5597 4.52981 23.5597 4.75161C23.5597 5.00153 23.1052 5.92311 22.1993 7.51947C21.2934 9.11583 20.7206 10.0124 20.4871 10.2092C20.3813 10.3154 20.2536 10.3654 20.0949 10.3654C20.0295 10.3654 19.7026 10.103 19.1173 9.5813C18.4138 8.95338 17.7227 8.46291 17.044 8.1099C16.0136 7.58507 14.9427 7.32578 13.8345 7.32578C11.9168 7.32578 10.3852 8.0443 9.23647 9.48446C8.18114 10.8184 7.65192 12.4679 7.65192 14.4329C7.65192 16.3978 8.18114 18.0911 9.23647 19.4406C10.3852 20.9058 11.9168 21.6399 13.8345 21.6399C14.9707 21.6399 16.0448 21.39 17.0627 20.8933C17.7289 20.5653 18.4045 20.1091 19.0987 19.5187C19.6715 19.022 19.9921 18.7721 20.0575 18.7721C20.1882 18.7721 20.319 18.8439 20.4497 18.9876C20.6583 19.2219 21.2249 20.0404 22.1526 21.4431C23.1052 22.8957 23.5815 23.6955 23.5815 23.8392L23.5753 23.8361Z" fill="#707A9F"/>
<path d="M49.0121 28.0753C49.0121 28.1659 48.8814 28.2315 48.6199 28.2721C48.1249 28.3502 46.8797 28.3908 44.8842 28.3908C43.1751 28.3908 42.014 28.3502 41.4007 28.2721C41.1143 28.2315 40.9493 28.2003 40.9119 28.1753C40.8341 28.1347 40.7438 28.0066 40.638 27.7816C40.4419 27.2724 40.1555 26.5133 39.7757 25.5043C39.2682 24.1953 38.4713 22.2647 37.3879 19.7124C37.1545 19.2032 36.6128 18.922 35.7629 18.8689C36.1552 18.8939 35.4827 18.9095 33.7488 18.9095C33.5526 18.9095 33.4561 19.2438 33.4561 19.9123C33.4561 20.8027 33.5371 22.1303 33.7021 23.8985C33.8639 25.6667 33.948 26.9944 33.948 27.8847C33.948 28.1065 33.8889 28.2377 33.7706 28.2784C33.5869 28.2909 33.4063 28.3034 33.2227 28.319C32.4537 28.3721 31.2521 28.3971 29.624 28.3971C27.7592 28.3971 26.6354 28.3565 26.2587 28.2784C25.8789 28.2003 25.6921 27.9972 25.6921 27.6692C25.6921 26.229 25.7606 24.0578 25.8976 21.1494C26.0346 18.2441 26.1031 16.0636 26.1031 14.6109C26.1031 9.07519 25.9786 4.75472 25.7326 1.65259L25.7139 1.37768C25.7015 1.15588 25.9069 1.00593 26.3303 0.924704C26.7537 0.846604 28.7461 0.768504 32.3074 0.690404C34.72 0.637297 36.6439 0.612305 38.079 0.612305C41.052 0.612305 43.4802 1.28709 45.3574 2.63353C47.4836 4.15179 48.5452 6.34483 48.5452 9.20953C48.5452 11.1214 48.2712 12.6459 47.7233 13.783C47.1754 14.9233 46.1637 16.0292 44.6912 17.1007C44.3923 17.31 44.2398 17.5068 44.2398 17.6912C44.2398 17.6787 45.0367 19.3219 46.6275 22.6208C48.2183 25.9197 49.0152 27.7379 49.0152 28.0784L49.0121 28.0753ZM40.7936 10.4622C40.7936 8.86589 40.2706 7.75999 39.2278 7.14457C38.4184 6.67285 37.1545 6.43855 35.4329 6.43855C34.1939 6.43855 33.534 6.62911 33.4561 7.00711C33.3783 7.45384 33.3378 8.73468 33.3378 10.8559C33.3378 11.1558 33.3441 11.6025 33.3565 12.1898C33.369 12.7802 33.3752 13.2176 33.3752 13.505C33.3752 13.5706 33.5838 13.6362 34.0009 13.7018C34.7979 13.8205 35.6322 13.8799 36.5038 13.8799C39.3616 13.8799 40.7874 12.7396 40.7874 10.4622H40.7936Z" fill="#707A9F"/>
<path d="M79.5202 27.7816C79.5202 28.0159 79.3583 28.1815 79.0314 28.2721C78.6392 28.3752 77.4282 28.4283 75.3923 28.4283C73.5275 28.4283 72.3259 28.3752 71.7936 28.2721C71.3484 28.1815 71.0682 27.8847 70.953 27.388C70.511 25.5043 70.1623 24.4952 69.9164 24.364C69.7078 24.2734 67.9583 24.2265 64.674 24.2265C62.4575 24.2265 61.2745 24.2859 61.1313 24.4046C60.9103 24.6139 60.6612 25.3137 60.3873 26.5071C60.1382 27.5942 59.8394 28.1815 59.4876 28.2752C59.0455 28.3783 57.5575 28.4314 55.0266 28.4314C53.0311 28.4314 52.0318 28.2409 52.0318 27.8629C52.0318 27.5224 53.5043 23.3393 56.4524 15.3169C59.6495 6.63848 61.3835 1.86814 61.6574 1.0028C61.8131 0.506084 61.9967 0.256165 62.2053 0.256165C62.5571 0.256165 63.1019 0.290528 63.8397 0.353008C64.5775 0.418612 65.1285 0.449852 65.4927 0.449852C65.8569 0.449852 66.3644 0.427984 67.0492 0.381124C67.7341 0.334264 68.2447 0.312396 68.584 0.312396C68.833 0.312396 69.0603 0.527952 69.2689 0.959062C69.907 2.33362 71.7718 7.04459 74.8662 15.0951C77.9699 23.1987 79.5233 27.4255 79.5233 27.7785L79.5202 27.7816ZM65.6484 9.89367C65.3744 10.4685 64.9106 11.7181 64.2599 13.6425C63.5564 15.6856 63.2046 16.882 63.2046 17.2351C63.2046 17.4693 63.5968 17.6006 64.3782 17.6287C64.7829 17.6537 65.4491 17.6693 66.3737 17.6693C67.236 17.6693 67.7092 17.5662 67.8026 17.3538C67.8275 17.2882 67.8431 17.1976 67.8431 17.0788C67.8431 16.6477 67.5442 15.4575 66.9434 13.505C66.355 11.6212 65.9254 10.4154 65.6515 9.89367H65.6484Z" fill="#707A9F"/>
<path d="M84.3454 28.2658C84.1088 28.269 83.9158 28.0722 83.9252 27.8347C83.9719 26.7445 84.003 25.0919 84.0155 22.8738C84.0279 20.4121 84.003 18.6502 83.9376 17.5912C83.9345 17.5256 83.9158 17.4662 83.8816 17.41L74.2716 0.946548C74.1097 0.668513 74.312 0.318626 74.6327 0.32175C76.2764 0.334246 77.6555 0.315502 78.773 0.315502C79.8906 0.315502 81.3071 0.340494 82.8948 0.318626C83.0629 0.318626 83.2154 0.41547 83.2839 0.568545C83.8785 1.94935 84.6505 4.45166 85.6031 6.15424C86.4405 7.65063 87.1534 9.01581 87.748 10.2467C87.8975 10.5559 88.3364 10.5559 88.4889 10.2467C89.6377 7.95366 90.5778 6.13862 91.3125 4.79843C92.0441 3.46761 92.5826 1.50262 92.9344 0.584165C92.9967 0.421718 93.1523 0.312378 93.3266 0.315502C94.8863 0.334246 96.3868 0.312378 97.8281 0.312378C98.5441 0.312378 99.7738 0.334246 101.517 0.318626C101.835 0.318626 102.04 0.659141 101.884 0.937176L94.4878 14.1735C92.9468 16.7133 92.181 18.041 92.1904 18.1597L92.1841 18.3565L92.1966 18.5534L92.1904 18.7502L92.2526 21.7336C92.29 23.5861 92.3585 25.6198 92.4519 27.8285C92.4612 28.0659 92.2713 28.2658 92.0316 28.2627C90.4004 28.2408 89.124 28.2284 88.2025 28.2284C87.2811 28.2284 85.9705 28.2408 84.3423 28.2627L84.3454 28.2658Z" fill="#707A9F"/>
<path d="M128 14.5297C128 18.6127 126.702 22.0366 124.106 24.7982C121.456 27.6005 118.107 29 114.05 29C109.994 29 106.675 27.588 104.014 24.7576C101.405 21.996 100.101 18.5846 100.101 14.5297C100.101 10.4747 101.405 7.03523 104.014 4.26112C106.675 1.42142 110.019 0 114.05 0C118.082 0 121.394 1.42142 124.068 4.26112C126.689 7.06334 128 10.4841 128 14.5297ZM120.585 14.4891C120.585 12.5241 119.99 10.8559 118.804 9.48131C117.565 8.04115 115.98 7.32263 114.05 7.32263C112.12 7.32263 110.651 8.06927 109.375 9.55941C108.136 10.9996 107.516 12.6553 107.516 14.5266C107.516 16.529 108.095 18.1972 109.256 19.5343C110.483 20.9339 112.08 21.6336 114.05 21.6336C115.89 21.6336 117.456 20.8932 118.745 19.4156C119.971 18.0036 120.585 16.3603 120.585 14.4891Z" fill="#707A9F"/>
</g>
<defs>
<clipPath id="clip0_424_4992">
<rect width="128" height="29" fill="white"/>
</clipPath>
</defs>
</svg>