<svg xmlns="http://www.w3.org/2000/svg" width="205" height="42" viewBox="0 0 205 42" fill="none">
<path d="M46.4165 20.8921H42.2614C42.0287 19.2965 41.1644 18.7314 39.2031 18.7314C37.5743 18.7314 36.6436 19.1303 36.6436 20.0943C36.6436 21.0583 37.5411 21.4572 39.3029 21.9559C41.1644 22.4877 42.9262 22.8534 44.1894 23.352C45.9179 24.0501 46.8819 25.1803 46.8819 27.3077C46.8819 30.6984 44.3888 32.7261 39.735 32.7261C34.7156 32.7261 31.9233 30.3659 31.8568 27.0418H36.3111C36.3111 28.5709 37.6076 29.4684 39.7018 29.4684C41.2309 29.4684 42.5938 29.003 42.5938 27.7731C42.5938 26.6097 41.3638 26.244 39.9677 25.9116C37.2087 25.2468 35.6796 24.7814 34.5161 24.0501C32.987 23.0861 32.4551 21.8229 32.4551 20.3603C32.4551 17.6012 34.3499 15.507 39.3361 15.507C44.0564 15.507 46.1838 17.3685 46.4165 20.8921ZM57.1808 25.7786V21.5237H61.203V26.1775C61.203 29.6346 59.2085 32.7261 54.588 32.7261C49.8012 32.7261 47.9064 29.6679 47.9064 26.1443V11.5181H52.1613V15.9392H61.203V18.9974H52.1613V25.7121C52.1613 27.7731 52.8926 28.9698 54.6544 28.9698C56.383 28.9698 57.1808 27.8064 57.1808 25.7786ZM77.6949 32.2939H73.6062V30.0003C72.476 31.8618 70.7807 32.7261 68.5203 32.7261C65.2626 32.7261 62.9689 30.2995 62.9689 26.7094V15.9392H67.2903V26.0446C67.2903 28.1055 68.2211 29.1028 70.0494 29.1028C72.2433 29.1028 73.4068 27.5404 73.4068 25.3797V15.9392H77.6949V32.2939ZM87.3349 29.2025C89.3959 29.2025 90.9915 27.2745 90.9915 24.5155C90.9915 20.9586 89.7615 19.1968 87.3682 19.1968C84.8418 19.1968 83.6451 20.8921 83.6451 24.2495C83.6451 27.1748 85.1742 29.2025 87.3349 29.2025ZM95.0802 32.2939H90.925L90.8917 30.2995C89.8613 31.9615 88.3322 32.7261 86.3377 32.7261C82.2157 32.7261 79.2572 29.4684 79.2572 23.9503C79.2572 18.9974 81.7503 15.507 85.972 15.507C87.9997 15.507 89.5953 16.3381 90.8253 18.0666V9.95571H95.0802V32.2939ZM107.394 32.7926V30.1333C106.796 31.5959 105.001 32.4602 102.973 32.4602C99.5491 32.4602 96.9895 30.1333 96.9895 26.5432V15.9392H101.311V25.9116C101.311 27.9393 102.242 28.9698 104.07 28.9698C106.031 28.9698 107.394 27.6734 107.394 25.9116V15.9392H111.715V32.7261C111.715 37.3466 108.391 40.0392 104.203 40.0392C99.4161 40.0392 96.9895 37.4131 96.9895 33.1915H101.012C101.012 35.1195 102.142 36.3162 104.402 36.3162C105.965 36.3162 107.394 34.9533 107.394 32.7926Z" fill="black"/>
<path d="M121.387 29.0363C123.913 29.0363 125.11 27.341 125.11 23.9836C125.11 21.0583 123.581 19.0306 121.42 19.0306C119.359 19.0306 117.764 20.9586 117.764 23.7177C117.764 27.2745 118.994 29.0363 121.387 29.0363ZM117.93 40.0392H113.675V15.9392H117.83L117.864 17.9336C118.894 16.2716 120.423 15.507 122.418 15.507C126.54 15.507 129.498 18.7647 129.498 24.2828C129.498 29.2357 127.005 32.7261 122.783 32.7261C120.756 32.7261 119.16 31.895 117.93 30.1665V40.0392ZM139.119 29.1028C141.745 29.1028 143.075 27.4407 143.075 24.1166C143.075 20.7924 141.745 19.1636 139.119 19.1636C136.493 19.1636 135.164 20.7924 135.164 24.1166C135.164 27.4407 136.493 29.1028 139.119 29.1028ZM139.119 32.7261C133.834 32.7261 130.709 29.2025 130.709 24.1166C130.709 18.9309 133.934 15.507 139.119 15.507C144.239 15.507 147.43 18.8977 147.43 24.1166C147.43 29.3022 144.205 32.7261 139.119 32.7261ZM158.268 25.7786V21.5237H162.291V26.1775C162.291 29.6346 160.296 32.7261 155.676 32.7261C150.889 32.7261 148.994 29.6679 148.994 26.1443V11.5181H153.249V15.9392H162.291V18.9974H153.249V25.7121C153.249 27.7731 153.98 28.9698 155.742 28.9698C157.471 28.9698 158.268 27.8064 158.268 25.7786ZM168.478 32.2939H164.156V15.9392H168.478V32.2939ZM168.478 13.9779H164.156V9.95571H168.478V13.9779ZM178.496 29.1028C181.122 29.1028 182.452 27.4407 182.452 24.1166C182.452 20.7924 181.122 19.1636 178.496 19.1636C175.87 19.1636 174.54 20.7924 174.54 24.1166C174.54 27.4407 175.87 29.1028 178.496 29.1028ZM178.496 32.7261C173.211 32.7261 170.086 29.2025 170.086 24.1166C170.086 18.9309 173.31 15.507 178.496 15.507C183.615 15.507 186.806 18.8977 186.806 24.1166C186.806 29.3022 183.582 32.7261 178.496 32.7261ZM203.197 32.2939H198.842V22.388C198.842 19.8617 198.111 19.1636 196.05 19.1636C193.789 19.1636 192.692 20.4268 192.692 22.9199V32.2939H188.371V15.9392H192.493V18.3325C193.49 16.5043 195.152 15.507 197.778 15.507C200.903 15.507 203.197 17.4018 203.197 20.9586V32.2939Z" fill="#4F46E5"/>
<path d="M21.9952 21.7269C20.7057 20.7231 19.2184 20.0886 17.6025 19.7866C17.4902 19.7662 17.4209 19.7377 17.3923 19.6112C17.2475 18.9705 17.0965 18.3299 16.9414 17.6913C16.9026 17.5362 16.9475 17.473 17.0944 17.4097C17.4923 17.2424 17.8432 16.9853 18.1248 16.663C19.1694 15.4633 18.8144 13.5067 17.3821 12.8089C16.9067 12.5783 16.6558 12.3192 16.6354 11.8112C16.5905 11.6174 16.5578 11.4215 16.4987 11.2338C16.4538 11.091 16.5007 11.0195 16.6272 10.9583C17.6045 10.485 18.5492 9.95657 19.4754 9.39345C19.6101 9.31184 19.6672 9.30571 19.708 9.48526C20.0814 11.1073 20.4589 12.7273 20.8485 14.3432C20.8996 14.5513 20.8832 14.6819 20.6731 14.7757C20.5507 14.8308 20.4691 14.9471 20.3834 15.0511C19.8345 15.7306 19.6958 17.2159 20.7873 17.8504C20.8669 17.8973 20.92 17.9443 20.8894 18.0565C20.7078 18.7461 20.8832 19.3908 21.1628 20.0151C21.5586 20.8965 22.2951 21.3821 23.1765 21.6617C23.7151 21.833 24.0946 22.1146 24.1864 22.6981C24.2109 22.8573 24.315 22.9021 24.4558 22.9021C24.7638 22.9042 24.9903 22.7165 25.076 22.3248C25.2147 21.6984 25.3698 21.0781 25.4596 20.4416C25.6473 19.1093 24.7536 17.6341 23.7213 17.2628C23.5478 17.2016 23.5744 17.1098 23.6192 16.9731C24.0191 15.7449 23.2418 14.5492 21.9707 14.4513C21.7932 14.437 21.7483 14.3738 21.7136 14.2228C21.3178 12.4763 20.92 10.7319 20.5139 8.98744C20.4793 8.84054 20.5201 8.77524 20.6466 8.71607C20.9261 8.58345 21.2036 8.44881 21.4729 8.29987C21.6443 8.20601 21.734 8.05093 21.7177 7.84691C21.7034 7.649 21.5586 7.56739 21.4035 7.49598C21.0954 7.35724 20.7669 7.30013 20.4344 7.27973C18.9021 7.18383 17.3678 7.1124 15.8335 7.0818C14.0769 7.04712 12.3304 6.84107 10.5717 6.82271C10.237 6.81863 9.93101 6.87778 9.6372 7.03896C8.4722 7.67961 7.30108 8.30598 6.13812 8.9507C4.44265 9.89127 2.68597 10.7176 1.02518 11.7214C0.768102 11.8765 0.492665 12.0071 0.280475 12.2254C0.127454 12.3845 0.0601248 12.5743 0.147857 12.7905C0.231508 13.0007 0.396771 13.068 0.617121 13.0802C1.72295 13.1414 2.82879 13.2067 3.93258 13.2843C4.58751 13.3312 5.24244 13.3618 5.89941 13.3679C5.98918 13.3679 6.10752 13.3353 6.14016 13.4924C6.22789 13.9188 6.32379 14.3432 6.4258 14.7675C6.45641 14.8961 6.41356 14.9695 6.31971 15.0511C4.9772 16.2202 5.35465 18.3319 6.90731 19.1399C7.32352 19.3562 7.77443 19.4337 8.23757 19.448C8.36611 19.452 8.45792 19.4704 8.49261 19.6275C8.63339 20.2702 8.78641 20.9088 8.93943 21.5494C8.96391 21.6555 8.94759 21.7167 8.8517 21.7841C7.35413 22.8369 6.18709 24.1794 5.32201 25.7932C3.88157 28.4803 3.75507 31.2734 4.71809 34.1176C5.47299 36.3476 6.91751 38.0818 8.90474 39.3325C11.655 41.0647 14.6563 41.5544 17.8208 40.8934C19.5897 40.5241 21.1607 39.6957 22.5501 38.5205C23.609 37.6248 24.4843 36.5782 25.1372 35.3581C26.6552 32.52 26.6919 29.582 25.6514 26.595C24.9597 24.5854 23.6458 23.0103 21.9952 21.7269ZM23.1377 17.9932C23.6213 18.1585 24.1314 18.7257 24.2742 19.3051C24.1089 19.0889 23.9763 18.9052 23.8335 18.7298C23.4744 18.2952 23.1377 18.2319 22.642 18.4911C22.5073 18.5625 22.442 18.6339 22.5665 18.7767C22.7174 18.9522 22.7909 19.1725 22.8786 19.3867C22.6889 19.2419 22.5603 19.0399 22.4032 18.8644C22.3502 18.8032 22.3135 18.691 22.2053 18.7339C22.1013 18.7767 22.0992 18.8869 22.1054 18.9807C22.1298 19.3011 22.289 19.5663 22.4706 19.8152C22.644 20.0519 22.8786 20.2335 23.1214 20.3987C23.3091 20.5252 23.4846 20.6701 23.6254 20.868C22.5155 20.717 21.5688 19.4969 21.7116 18.4278C21.7259 18.3197 21.7483 18.2666 21.8789 18.2585C22.2441 18.236 22.6011 18.1667 22.9337 18.0034C23.001 17.9708 23.0643 17.9688 23.1377 17.9932ZM21.5953 15.3674C22.1033 15.2491 22.6318 15.6143 22.7583 16.1672C22.8623 16.6303 22.5624 17.1343 22.1217 17.2342C21.5198 17.3689 20.9608 17.0527 20.8445 16.514C20.7465 16.0489 21.1199 15.4776 21.5953 15.3674ZM2.3432 12.2274C2.26975 12.2233 2.1861 12.2458 2.09837 12.158C2.51662 11.9193 2.91856 11.6704 3.33682 11.4562C4.91191 10.6441 6.47477 9.80558 8.02742 8.94866C8.69868 8.57733 9.35565 8.17745 10.0718 7.89181C10.3574 7.77756 10.6471 7.80408 10.9369 7.79388C11.9427 7.75716 12.9425 7.90404 13.9483 7.92852C14.2605 7.93668 14.5726 7.94485 14.9481 7.9877C14.5257 8.24069 14.1238 8.33658 13.7035 8.36106C13.1098 8.39575 12.5222 8.25906 11.9264 8.27538C11.6428 8.28355 11.3572 8.27129 11.0715 8.25905C10.4431 8.23252 9.90244 8.48349 9.36993 8.77933C8.10495 9.48323 6.83794 10.181 5.57092 10.8788C5.2812 11.04 4.9874 11.195 4.69564 11.3542C4.62015 11.397 4.5467 11.4439 4.47529 11.4949C4.41 11.5419 4.34472 11.601 4.36308 11.6888C4.3794 11.7704 4.46305 11.7867 4.53038 11.803C4.6528 11.8316 4.77725 11.8663 4.90375 11.8724C6.78489 11.9459 8.66399 12.0642 10.541 12.2192C11.0348 12.26 11.4755 12.154 11.906 11.9173C13.273 11.1665 14.6461 10.4279 16.0212 9.69133C16.4109 9.48118 16.8231 9.31388 17.1924 9.06293C17.2515 9.02212 17.3127 8.9854 17.3678 8.94052C17.4719 8.85687 17.6208 8.76913 17.6045 8.63448C17.5841 8.48146 17.3984 8.54877 17.2923 8.49368C17.8514 8.35494 18.3941 8.48755 18.945 8.58549C18.5267 8.8242 18.1248 9.067 17.7208 9.30571C15.7478 10.4626 13.7096 11.5031 11.7203 12.6293C11.5367 12.7334 11.349 12.7844 11.1327 12.7701C8.20289 12.5865 5.27304 12.409 2.3432 12.2274ZM10.5717 10.0525C10.7063 10.2728 11.0368 10.3279 11.2898 10.1687C11.3429 10.1361 11.3898 10.0912 11.4388 10.0525C11.5245 9.98309 11.6224 9.88313 11.7265 9.9831C11.8101 10.0647 11.7795 10.1973 11.7203 10.2932C11.5898 10.4973 11.4102 10.6503 11.1837 10.7421C10.8532 10.8767 10.3839 10.7543 10.1432 10.4727C9.88816 10.1769 9.85347 9.72194 10.0595 9.36285C10.2391 9.05068 10.5859 8.89765 10.9532 8.96906C11.045 8.98742 11.1409 9.0058 11.2164 9.10781C11.0511 9.19554 10.9001 9.26286 10.7614 9.35059C10.5043 9.51585 10.4288 9.81783 10.5717 10.0525ZM8.28042 15.0124C8.33346 15.0226 8.38855 15.0328 8.44364 15.0348C9.50459 15.0593 10.5655 15.0552 11.6122 14.8553C12.3916 14.7064 13.1261 14.4023 13.8585 14.1024C14.2646 13.9351 14.6236 13.6923 14.995 13.4679C15.2153 13.3332 15.3745 13.1374 15.4785 12.8803C15.8274 13.1578 15.9029 13.3496 15.4642 13.6842C14.742 14.233 13.934 14.6431 13.0853 14.9491C11.5979 15.4837 10.0514 15.6408 8.48037 15.5163C7.57856 15.4449 7.55612 15.4102 7.36841 14.5309C7.30516 14.2371 7.25416 13.9412 7.18887 13.6474C7.15826 13.5087 7.17867 13.4495 7.33985 13.4393C7.5602 13.425 7.74586 13.421 7.81523 13.6944C7.84176 13.8045 7.94785 13.8658 8.06823 13.8841C8.27838 13.9168 8.48853 13.9535 8.69868 13.9922C8.77417 14.0065 8.87006 14.0086 8.86802 14.1188C8.86598 14.2391 8.76804 14.2452 8.68031 14.2534C8.57014 14.2636 8.45996 14.2697 8.34979 14.2758C8.13964 14.2881 8.03558 14.4146 8.00498 14.6696C7.98254 14.8818 8.09271 14.9756 8.28042 15.0124ZM8.05191 18.4666C7.297 18.3482 6.76041 17.9606 6.49517 17.2445C6.32379 16.7833 6.44417 16.3386 6.68696 15.9264C6.7196 15.8714 6.76449 15.7795 6.8359 15.8999C7.09705 16.3406 7.54592 16.4344 7.99478 16.4916C8.90066 16.6058 9.81063 16.5854 10.7165 16.4732C12.512 16.2488 14.2136 15.7387 15.7744 14.8022C15.958 14.6921 16.1355 14.5758 16.2987 14.437C16.5762 14.2004 16.7823 13.9371 16.7007 13.5373C17.3474 13.7454 17.7677 14.4105 17.731 15.1103C17.6963 15.7428 17.3637 16.1733 16.8414 16.4773C15.3133 17.3648 13.6647 17.9341 11.9427 18.2809C10.6594 18.538 9.36177 18.6686 8.05191 18.4666ZM22.6787 37.0433C21.1199 38.696 19.2204 39.7365 16.9863 40.0936C14.489 40.4914 12.1223 40.0528 9.90856 38.8C7.92949 37.6799 6.50333 36.0742 5.68926 33.9584C5.05065 32.2977 4.91395 30.5716 5.2506 28.819C5.65254 26.7358 6.6788 24.9934 8.18044 23.5183C8.5987 23.1062 9.10673 22.8022 9.54947 22.4166C9.83715 22.1656 9.97997 21.8657 9.88204 21.4678C9.74126 20.8986 9.62292 20.3253 9.48622 19.754C9.44338 19.5745 9.47398 19.5173 9.68005 19.5071C11.4877 19.4173 13.2363 19.0338 14.9399 18.4237C15.2521 18.3115 15.5683 18.2095 15.8703 18.0667C16.0212 17.9953 16.0457 18.0891 16.0722 18.1993C16.1885 18.6931 16.3273 19.1827 16.4171 19.6805C16.5334 20.3171 16.9088 20.6517 17.527 20.7864C18.8878 21.0822 20.161 21.5923 21.2852 22.4288C22.9317 23.655 24.1742 25.1873 24.823 27.1623C24.8557 27.2602 24.9005 27.3541 24.925 27.454C24.9924 27.7233 25.0495 27.9947 25.1127 28.264C25.8105 31.606 25.0372 34.544 22.6787 37.0433Z" fill="black"/>
<path d="M23.6091 27.4032C23.4969 26.9605 23.3214 26.5483 23.0378 26.1872C22.9705 26.1036 22.8868 25.9954 22.7644 26.0362C22.6563 26.073 22.6461 26.2056 22.642 26.3015C22.6339 26.5769 22.5094 26.8014 22.3666 27.0238C22.1095 27.4196 21.7524 27.7072 21.3546 27.9419C19.7428 28.8947 18.0167 29.57 16.209 30.0454C15.0889 30.3392 13.9504 30.5432 12.8017 30.6738C11.4388 30.8289 10.0718 30.8962 8.70485 30.7432C7.97851 30.6636 7.31746 30.433 6.82779 29.8393C6.60948 29.5761 6.48095 29.6088 6.39321 29.9413C6.27488 30.3841 6.30344 30.8391 6.35649 31.2859C6.58704 33.2119 7.36031 34.8686 8.74362 36.258C10.2636 37.7842 12.0815 38.6207 14.2055 38.8431C16.8354 39.1185 19.1939 38.433 21.1506 36.6641C23.7336 34.33 24.5517 31.4063 23.754 28.0255C23.705 27.8194 23.6622 27.6114 23.6091 27.4032ZM9.3047 33.6445C8.88848 33.7403 8.47634 33.4955 8.39065 33.1017C8.29476 32.661 8.53143 32.2673 8.94969 32.1755C9.35774 32.0857 9.78008 32.3509 9.87393 32.7549C9.96983 33.1711 9.72907 33.5465 9.3047 33.6445ZM11.3756 34.9972C11.0349 35.0767 10.6798 34.8645 10.6064 34.5381C10.535 34.2178 10.7635 33.9036 11.1144 33.8342C11.4388 33.7709 11.7938 33.975 11.8612 34.2647C11.9326 34.5769 11.7041 34.9196 11.3756 34.9972ZM13.7341 36.4723C13.4261 36.5437 13.1302 36.3764 13.069 36.0928C13.0058 35.801 13.1608 35.5501 13.4505 35.4766C13.7566 35.3991 14.081 35.5725 14.1483 35.85C14.2157 36.1254 14.03 36.4029 13.7341 36.4723Z" fill="#4F46E5"/>
<path d="M7.75208 29.7964C8.2193 30.1229 8.76406 30.1473 9.30065 30.1718C11.3164 30.2677 13.2976 30.0147 15.2562 29.5597C15.5643 29.4883 15.8765 29.4292 16.1825 29.3455C17.7515 28.9109 19.2837 28.3805 20.7017 27.5664C21.1363 27.3175 21.5648 27.0563 21.8484 26.6258C22.0891 26.2586 22.0157 26.0525 21.6076 25.9015C21.169 25.7403 20.7079 25.7159 20.2508 25.7097C18.5717 25.6812 16.9252 25.9688 15.2746 26.2178C13.9688 26.4157 12.71 26.785 11.4736 27.242C10.4126 27.6337 9.34758 28.0214 8.38661 28.6355C8.13361 28.7987 7.88266 28.9681 7.68067 29.1925C7.45216 29.4414 7.47868 29.6046 7.75208 29.7964Z" fill="#4F46E5"/>
<path d="M9.18616 26.7073C9.80436 26.5686 10.1757 25.9912 10.037 25.3832C9.89821 24.769 9.28613 24.3691 8.69649 24.5017C8.0844 24.6405 7.7498 25.2077 7.90078 25.8463C8.05176 26.487 8.58427 26.844 9.18616 26.7073Z" fill="#4F46E5"/>
<path d="M15.4786 20.4234C15.2277 20.6193 15.1848 20.8376 15.3582 21.0804C15.6072 21.4293 15.9499 21.6741 16.3111 21.8884C16.4824 21.9904 16.6824 22.0291 16.8721 21.97C17.1313 21.9128 17.3434 21.717 17.3373 21.513C17.3332 21.3089 17.1353 21.2742 16.9986 21.1906C16.9844 21.1824 16.9701 21.1763 16.9558 21.1702C16.6151 21.0233 16.3233 20.8193 16.0989 20.5173C15.9254 20.2847 15.6888 20.2602 15.4786 20.4234Z" fill="#4F46E5"/>
<path d="M10.7756 23.4105C10.8776 23.3941 10.9694 23.335 11.0408 23.2472C11.3142 22.9106 11.4734 22.5311 11.4713 22.0924C11.4713 21.8986 11.4142 21.7272 11.1898 21.6823C10.9715 21.6395 10.7654 21.668 10.6511 21.8762C10.4879 22.174 10.3308 22.478 10.2084 22.7943C10.0717 23.1513 10.392 23.4941 10.7756 23.4105Z" fill="#4F46E5"/>
<path d="M22.1424 16.9936C22.4688 16.8528 22.6973 16.3937 22.6157 16.0407C22.5341 15.6878 22.2791 15.5735 21.9057 15.7225C21.7914 15.7674 21.7139 15.8408 21.7384 15.9734C21.7792 16.1897 21.667 16.2427 21.4834 16.2223C21.3242 16.204 21.2426 16.2672 21.2528 16.4345C21.2712 16.7977 21.8078 17.1364 22.1424 16.9936Z" fill="black"/>
<path d="M14.6319 17.1056C14.8854 17.1056 15.091 16.9001 15.091 16.6466C15.091 16.393 14.8854 16.1875 14.6319 16.1875C14.3784 16.1875 14.1729 16.393 14.1729 16.6466C14.1729 16.9001 14.3784 17.1056 14.6319 17.1056Z" fill="black"/>
<path d="M15.7667 16.5224C16.0202 16.5224 16.2257 16.3168 16.2257 16.0633C16.2257 15.8098 16.0202 15.6042 15.7667 15.6042C15.5131 15.6042 15.3076 15.8098 15.3076 16.0633C15.3076 16.3168 15.5131 16.5224 15.7667 16.5224Z" fill="black"/>
<path d="M16.815 15.9328C17.0686 15.9328 17.2741 15.7272 17.2741 15.4737C17.2741 15.2202 17.0686 15.0146 16.815 15.0146C16.5615 15.0146 16.356 15.2202 16.356 15.4737C16.356 15.7272 16.5615 15.9328 16.815 15.9328Z" fill="black"/>
<path d="M26.9081 22.0862C27.2033 22.0862 27.4426 21.8469 27.4426 21.5516C27.4426 21.2564 27.2033 21.0171 26.9081 21.0171C26.6129 21.0171 26.3735 21.2564 26.3735 21.5516C26.3735 21.8469 26.6129 22.0862 26.9081 22.0862Z" fill="black"/>
<path d="M26.1244 23.9568C26.4196 23.9568 26.6589 23.7175 26.6589 23.4222C26.6589 23.127 26.4196 22.8877 26.1244 22.8877C25.8292 22.8877 25.5898 23.127 25.5898 23.4222C25.5898 23.7175 25.8292 23.9568 26.1244 23.9568Z" fill="black"/>
<path d="M28.1627 23.4247C28.3847 23.4247 28.5646 23.2448 28.5646 23.0228C28.5646 22.8008 28.3847 22.6208 28.1627 22.6208C27.9407 22.6208 27.7607 22.8008 27.7607 23.0228C27.7607 23.2448 27.9407 23.4247 28.1627 23.4247Z" fill="black"/>
<path d="M10.8376 21.1505C11.0882 21.1124 11.2477 20.7943 11.1938 20.44C11.1399 20.0858 10.8929 19.8295 10.6423 19.8677C10.3917 19.9058 10.2322 20.2239 10.2861 20.5782C10.3401 20.9324 10.587 21.1887 10.8376 21.1505Z" fill="#4F46E5"/>
<path d="M15.3937 20.0348C15.6444 19.9966 15.8039 19.6785 15.7499 19.3243C15.696 18.97 15.4491 18.7138 15.1985 18.752C14.9478 18.7901 14.7883 19.1082 14.8423 19.4625C14.8962 19.8167 15.1431 20.0729 15.3937 20.0348Z" fill="#4F46E5"/>
<path d="M2.66541 29.2149C2.96064 29.2149 3.19997 28.9755 3.19997 28.6803C3.19997 28.3851 2.96064 28.1458 2.66541 28.1458C2.37019 28.1458 2.13086 28.3851 2.13086 28.6803C2.13086 28.9755 2.37019 29.2149 2.66541 29.2149Z" fill="black"/>
<path d="M2.99989 33.7586C3.29511 33.7586 3.53444 33.5192 3.53444 33.224C3.53444 32.9288 3.29511 32.6895 2.99989 32.6895C2.70466 32.6895 2.46533 32.9288 2.46533 33.224C2.46533 33.5192 2.70466 33.7586 2.99989 33.7586Z" fill="black"/>
</svg>